<mxfile version="13.6.10" type="github" host="app.diagrams.net" modified="2020-09-14T16:45:41.395Z" agent="5.0 (Windows NT 10.0; Win64; x64) AppleWebKit/537.36 (KHTML, like Gecko) Chrome/70.0.3538.102 Safari/537.36 Edge/18.18363" etag="OyIHxfoTjPxFvG58HcD1">
  <diagram id="qUnon9rWK1T8DNUqRCIi" name="Page-1">
    <mxGraphModel grid="0" dx="508" dy="575" gridSize="10" guides="1" tooltips="1" connect="1" arrows="1" fold="1" page="1" pageScale="1" pageWidth="850" pageHeight="1100" math="0" shadow="0" background="#114B5F">
      <root>
        <mxCell id="0" />
        <mxCell id="1" parent="0" />
        <mxCell id="c7U_lFZOKelw3ld-xOK1-2" value="" parent="1" target="c7U_lFZOKelw3ld-xOK1-1" source="TYUJkwS5z9lv2B-sG-99-1" edge="1" style="edgeStyle=orthogonalEdgeStyle;orthogonalLoop=1;jettySize=auto;html=1;labelBackgroundColor=#114B5F;strokeColor=#028090;fontColor=#E4FDE1;curved=1;">
          <mxGeometry as="geometry" relative="1" />
        </mxCell>
        <mxCell id="TYUJkwS5z9lv2B-sG-99-1" value="Start" parent="1" style="ellipse;whiteSpace=wrap;html=1;fillColor=#F45B69;strokeColor=#028090;fontColor=#E4FDE1;" vertex="1">
          <mxGeometry as="geometry" x="60" y="40" width="120" height="80" />
        </mxCell>
        <mxCell id="c7U_lFZOKelw3ld-xOK1-4" value="" parent="1" source="c7U_lFZOKelw3ld-xOK1-1" edge="1" style="edgeStyle=orthogonalEdgeStyle;orthogonalLoop=1;jettySize=auto;html=1;labelBackgroundColor=#114B5F;strokeColor=#028090;fontColor=#E4FDE1;curved=1;">
          <mxGeometry as="geometry" relative="1">
            <mxPoint as="targetPoint" x="120" y="250" />
          </mxGeometry>
        </mxCell>
        <mxCell id="c7U_lFZOKelw3ld-xOK1-1" value="Enter Starting Balance" parent="1" style="shape=parallelogram;perimeter=parallelogramPerimeter;whiteSpace=wrap;html=1;fixedSize=1;fillColor=#F45B69;strokeColor=#028090;fontColor=#E4FDE1;" vertex="1">
          <mxGeometry as="geometry" x="60" y="150" width="120" height="60" />
        </mxCell>
        <mxCell id="lZdONFPbMPYTnM9vWjer-3" value="" parent="1" target="lZdONFPbMPYTnM9vWjer-2" source="lZdONFPbMPYTnM9vWjer-1" edge="1" style="edgeStyle=orthogonalEdgeStyle;orthogonalLoop=1;jettySize=auto;html=1;labelBackgroundColor=#114B5F;strokeColor=#028090;fontColor=#E4FDE1;curved=1;">
          <mxGeometry as="geometry" relative="1" />
        </mxCell>
        <mxCell id="lZdONFPbMPYTnM9vWjer-1" value="Get starting balance" parent="1" style="whiteSpace=wrap;html=1;fillColor=#F45B69;strokeColor=#028090;fontColor=#E4FDE1;" vertex="1">
          <mxGeometry as="geometry" x="60" y="250" width="120" height="60" />
        </mxCell>
        <mxCell id="lZdONFPbMPYTnM9vWjer-5" value="" parent="1" target="lZdONFPbMPYTnM9vWjer-4" source="lZdONFPbMPYTnM9vWjer-2" edge="1" style="edgeStyle=orthogonalEdgeStyle;orthogonalLoop=1;jettySize=auto;html=1;labelBackgroundColor=#114B5F;strokeColor=#028090;fontColor=#E4FDE1;curved=1;">
          <mxGeometry as="geometry" relative="1" />
        </mxCell>
        <mxCell id="lZdONFPbMPYTnM9vWjer-2" value="Enter Yearly Contribution" parent="1" style="shape=parallelogram;perimeter=parallelogramPerimeter;whiteSpace=wrap;html=1;fixedSize=1;fillColor=#F45B69;strokeColor=#028090;fontColor=#E4FDE1;" vertex="1">
          <mxGeometry as="geometry" x="60" y="390" width="120" height="60" />
        </mxCell>
        <mxCell id="lZdONFPbMPYTnM9vWjer-7" value="" parent="1" target="lZdONFPbMPYTnM9vWjer-6" source="lZdONFPbMPYTnM9vWjer-4" edge="1" style="edgeStyle=orthogonalEdgeStyle;orthogonalLoop=1;jettySize=auto;html=1;labelBackgroundColor=#114B5F;strokeColor=#028090;fontColor=#E4FDE1;curved=1;">
          <mxGeometry as="geometry" relative="1" />
        </mxCell>
        <mxCell id="lZdONFPbMPYTnM9vWjer-4" value="get yearly contribution" parent="1" style="whiteSpace=wrap;html=1;fillColor=#F45B69;strokeColor=#028090;fontColor=#E4FDE1;" vertex="1">
          <mxGeometry as="geometry" x="60" y="530" width="120" height="60" />
        </mxCell>
        <mxCell id="lZdONFPbMPYTnM9vWjer-9" value="" parent="1" target="lZdONFPbMPYTnM9vWjer-8" source="lZdONFPbMPYTnM9vWjer-6" edge="1" style="edgeStyle=orthogonalEdgeStyle;orthogonalLoop=1;jettySize=auto;html=1;labelBackgroundColor=#114B5F;strokeColor=#028090;fontColor=#E4FDE1;curved=1;">
          <mxGeometry as="geometry" relative="1" />
        </mxCell>
        <mxCell id="lZdONFPbMPYTnM9vWjer-6" value="Enter Average Return On Investment" parent="1" style="shape=parallelogram;perimeter=parallelogramPerimeter;whiteSpace=wrap;html=1;fixedSize=1;fillColor=#F45B69;strokeColor=#028090;fontColor=#E4FDE1;" vertex="1">
          <mxGeometry as="geometry" x="220" y="525" width="190" height="70" />
        </mxCell>
        <mxCell id="lZdONFPbMPYTnM9vWjer-11" value="" parent="1" target="lZdONFPbMPYTnM9vWjer-10" source="lZdONFPbMPYTnM9vWjer-8" edge="1" style="edgeStyle=orthogonalEdgeStyle;orthogonalLoop=1;jettySize=auto;html=1;labelBackgroundColor=#114B5F;strokeColor=#028090;fontColor=#E4FDE1;curved=1;">
          <mxGeometry as="geometry" relative="1" />
        </mxCell>
        <mxCell id="lZdONFPbMPYTnM9vWjer-8" value="get average return on investment" parent="1" style="whiteSpace=wrap;html=1;fillColor=#F45B69;strokeColor=#028090;fontColor=#E4FDE1;" vertex="1">
          <mxGeometry as="geometry" x="237.5" y="390" width="155" height="50" />
        </mxCell>
        <mxCell id="lZdONFPbMPYTnM9vWjer-13" value="" parent="1" target="lZdONFPbMPYTnM9vWjer-12" source="lZdONFPbMPYTnM9vWjer-10" edge="1" style="edgeStyle=orthogonalEdgeStyle;orthogonalLoop=1;jettySize=auto;html=1;labelBackgroundColor=#114B5F;strokeColor=#028090;fontColor=#E4FDE1;curved=1;">
          <mxGeometry as="geometry" relative="1" />
        </mxCell>
        <mxCell id="lZdONFPbMPYTnM9vWjer-10" value="Enter Number of Years" parent="1" style="shape=parallelogram;perimeter=parallelogramPerimeter;whiteSpace=wrap;html=1;fixedSize=1;fillColor=#F45B69;strokeColor=#028090;fontColor=#E4FDE1;" vertex="1">
          <mxGeometry as="geometry" x="227.5" y="270" width="175" height="45" />
        </mxCell>
        <mxCell id="lZdONFPbMPYTnM9vWjer-15" value="" parent="1" target="lZdONFPbMPYTnM9vWjer-14" source="lZdONFPbMPYTnM9vWjer-12" edge="1" style="edgeStyle=orthogonalEdgeStyle;orthogonalLoop=1;jettySize=auto;html=1;labelBackgroundColor=#114B5F;strokeColor=#028090;fontColor=#E4FDE1;curved=1;">
          <mxGeometry as="geometry" relative="1" />
        </mxCell>
        <mxCell id="lZdONFPbMPYTnM9vWjer-12" value="get number of years" parent="1" style="whiteSpace=wrap;html=1;fillColor=#F45B69;strokeColor=#028090;fontColor=#E4FDE1;" vertex="1">
          <mxGeometry as="geometry" x="255" y="137.5" width="120" height="60" />
        </mxCell>
        <mxCell id="lZdONFPbMPYTnM9vWjer-14" value="Calculate balance" parent="1" style="whiteSpace=wrap;html=1;fillColor=#F45B69;strokeColor=#028090;fontColor=#E4FDE1;" vertex="1">
          <mxGeometry as="geometry" x="455" y="137.5" width="120" height="60" />
        </mxCell>
      </root>
    </mxGraphModel>
  </diagram>
</mxfile>
